<?xml version="1.0" standalone="no"?>
<!DOCTYPE svg PUBLIC "-//W3C//DTD SVG 20010904//EN"
 "http://www.w3.org/TR/2001/REC-SVG-20010904/DTD/svg10.dtd">
<svg version="1.0" xmlns="http://www.w3.org/2000/svg"
 width="373.000000pt" height="373.000000pt" viewBox="0 0 373.000000 373.000000"
 preserveAspectRatio="xMidYMid meet">
<metadata>
Created by potrace 1.14, written by Peter Selinger 2001-2017
</metadata>
<g transform="translate(0.000000,373.000000) scale(0.100000,-0.100000)"
fill="#000000" stroke="none">
<path d="M0 1865 l0 -1865 1865 0 1865 0 0 1865 0 1865 -1865 0 -1865 0 0
-1865z m2045 922 c95 -49 166 -149 169 -239 1 -61 -17 -63 -26 -3 -20 139
-141 245 -279 245 -70 0 -148 -33 -196 -82 -49 -51 -69 -90 -84 -157 -14 -66
-29 -75 -29 -18 l0 45 -57 -17 c-69 -21 -114 -44 -133 -66 -11 -13 -9 -19 10
-40 52 -56 246 -90 500 -89 241 1 430 36 481 90 19 20 20 26 8 40 -15 18 -105
64 -126 64 -6 0 -24 5 -39 10 -20 8 -24 14 -16 22 18 18 150 -28 189 -67 39
-39 41 -53 11 -84 -29 -32 -87 -56 -184 -77 -71 -15 -81 -19 -76 -36 7 -28
-77 -103 -144 -128 -71 -26 -166 -26 -236 0 -51 19 -118 73 -139 111 -18 35 8
28 47 -13 91 -95 227 -117 345 -55 34 17 72 46 85 63 l23 30 -217 0 c-187 -1
-233 3 -331 22 -123 25 -160 40 -203 80 -37 34 -35 54 7 91 37 32 157 75 185
66 13 -4 19 1 23 17 19 74 114 166 201 194 63 21 171 12 231 -19z m-535 -1103
l-18 -64 171 -2 c164 -3 172 -4 172 -23 0 -19 -8 -20 -180 -23 l-180 -3 -43
-107 c-24 -59 -46 -115 -49 -124 -5 -16 3 -18 71 -18 l76 0 0 80 c0 79 0 80
25 80 25 0 25 -1 25 -80 l0 -80 110 0 c103 0 110 -1 110 -20 0 -19 -7 -20
-110 -20 l-110 0 0 -184 c0 -135 -3 -186 -13 -194 -7 -6 -40 -14 -74 -17 -55
-7 -62 -5 -72 13 -17 31 -15 32 49 32 l60 0 0 176 0 177 -105 -5 c-77 -3 -105
-1 -109 8 -3 7 10 43 29 81 19 37 45 98 59 136 l25 67 -74 0 c-73 0 -75 1 -75
25 0 23 2 24 82 27 91 3 82 -4 107 94 10 36 14 41 35 37 l24 -5 -18 -64z m720
16 l0 -50 145 0 145 0 0 50 c0 43 3 50 20 50 17 0 20 -7 20 -50 l0 -50 115 0
c108 0 115 -1 115 -20 0 -18 -8 -20 -112 -22 l-113 -3 -3 -47 c-3 -40 -6 -48
-23 -48 -16 0 -19 7 -19 50 l0 50 -145 0 -145 0 0 -50 c0 -47 -2 -50 -25 -50
-23 0 -25 3 -25 50 l0 50 -110 0 c-103 0 -110 1 -110 20 0 19 7 20 110 20
l110 0 0 50 c0 47 2 50 25 50 23 0 25 -3 25 -50z m-972 1 c10 -6 4 -34 -32
-131 l-46 -123 29 -46 c41 -66 54 -114 49 -187 -5 -80 -20 -97 -85 -98 -36 -1
-48 3 -51 15 -2 12 7 18 37 23 51 8 65 32 58 101 -5 52 -33 119 -67 162 -17
22 -16 26 16 110 18 48 36 100 39 116 l7 27 -71 0 -71 0 -2 -392 -3 -393 -22
-3 -23 -3 0 415 0 416 113 0 c61 0 118 -4 125 -9z m1092 -182 c0 -6 -7 -26
-15 -46 -8 -19 -15 -39 -15 -44 0 -5 108 -9 240 -9 233 0 240 -1 240 -20 0
-19 -7 -20 -255 -20 -140 0 -255 -4 -255 -8 0 -4 -20 -38 -44 -75 l-44 -67
254 0 254 0 0 -170 c0 -163 -1 -170 -20 -170 -13 0 -20 7 -20 20 0 19 -7 20
-234 20 l-235 0 -3 -22 c-2 -15 -10 -23 -23 -23 -19 0 -20 8 -25 143 l-5 144
-25 -28 c-14 -15 -51 -46 -83 -70 -50 -37 -61 -42 -78 -31 -26 16 -25 19 18
42 55 29 177 148 223 217 22 33 40 64 40 69 0 5 -65 9 -145 9 -138 0 -145 1
-145 20 0 19 7 20 159 20 l159 0 21 49 c11 27 21 54 21 59 0 6 9 8 20 5 11 -3
20 -9 20 -14z m-927 -345 c9 -9 -66 -151 -104 -197 -28 -34 -33 -37 -47 -23
-13 13 -12 18 10 44 14 17 43 64 64 106 36 70 57 89 77 70z m369 -103 c47 -81
57 -105 47 -112 -17 -11 -39 -12 -39 -1 0 4 -25 52 -55 107 -30 54 -55 103
-55 108 0 4 10 7 21 5 15 -2 39 -33 81 -107z m-650 -391 c15 0 19 5 15 20 -3
11 -1 20 4 20 5 0 9 -9 9 -20 0 -13 7 -20 18 -20 11 0 27 9 37 20 10 11 23 20
28 20 6 0 2 -9 -8 -20 -16 -18 -16 -20 -2 -20 19 0 23 -35 6 -46 -8 -4 -9 0
-4 15 6 20 4 21 -84 21 -84 0 -91 -1 -91 -20 0 -11 -5 -20 -11 -20 -6 0 -8 7
-5 16 3 9 6 20 6 25 0 5 9 9 21 9 16 0 19 5 14 23 l-6 22 17 -22 c9 -13 25
-23 36 -23z m637 29 c17 -6 31 -15 31 -19 0 -8 -67 15 -79 26 -8 8 16 4 48 -7z
m607 -29 l-6 -40 42 -2 43 -1 -45 -6 c-40 -5 -46 -9 -51 -36 -13 -62 -12 -64
39 -68 26 -2 -5 -4 -68 -4 -63 0 -105 2 -93 4 18 3 24 15 33 61 14 70 19 86
25 80 3 -3 -1 -35 -9 -71 l-14 -67 32 0 32 0 18 95 c10 52 20 95 23 95 3 0 3
-18 -1 -40z m229 19 c-8 -24 8 -39 43 -39 26 0 29 15 5 29 -15 9 -12 10 15 11
18 0 32 5 33 13 0 10 2 10 6 0 2 -7 19 -13 36 -13 l31 0 -24 -17 -24 -17 24
-7 c14 -4 -15 -7 -67 -8 -85 -1 -93 -3 -93 -20 0 -11 -3 -27 -7 -37 -5 -13 -3
-16 10 -11 28 11 19 -1 -13 -18 -33 -17 -66 -20 -35 -3 11 6 21 11 22 12 0 1
4 17 8 38 6 30 4 37 -12 41 -16 4 -16 6 5 12 12 4 22 15 22 24 0 17 8 31 17
31 3 0 1 -10 -2 -21z m-1061 -26 c-4 -21 -14 -65 -23 -98 -15 -56 -18 -60 -46
-62 -28 -2 -28 -1 -5 5 20 6 28 20 42 67 29 107 30 105 -62 105 -47 0 -80 4
-80 10 0 6 37 10 90 10 l91 0 -7 -37z m572 28 c-44 -5 -51 -9 -57 -33 -7 -28
-7 -28 41 -28 27 0 52 -4 55 -10 4 -6 -16 -10 -52 -10 -55 0 -59 -2 -74 -33
-17 -34 -72 -77 -98 -77 -9 1 -2 7 14 14 31 13 85 69 85 87 0 5 -21 9 -46 9
-27 0 -43 4 -39 10 3 6 26 10 50 10 30 0 45 5 49 16 13 34 6 43 -36 47 -24 2
2 4 57 4 69 0 85 -2 51 -6z m-356 -43 c0 -47 15 -54 54 -24 20 15 36 23 36 19
0 -4 -16 -19 -35 -32 -19 -13 -35 -28 -35 -33 0 -5 12 -20 26 -35 14 -14 23
-27 21 -29 -7 -8 -49 39 -62 70 l-13 31 -7 -48 c-9 -60 -42 -97 -60 -67 -3 6
3 10 14 10 16 0 22 11 31 58 6 31 13 63 15 70 3 8 -7 12 -30 12 -19 0 -35 5
-35 10 0 6 18 10 40 10 35 0 40 -3 40 -22z m-310 -39 c0 -12 -59 32 -59 44 -1
5 13 -1 29 -13 17 -12 30 -26 30 -31z m-275 -4 l-40 -25 55 -2 55 -2 -50 -3
c-52 -4 -65 -14 -65 -49 0 -21 -17 -34 -46 -34 -23 0 -16 18 9 22 15 2 23 11
25 30 3 25 1 27 -45 31 l-48 3 53 2 c28 1 52 6 52 11 0 5 10 12 23 16 18 7 13
9 -28 15 -50 7 -49 7 20 8 l70 1 -40 -24z m1575 16 c0 -38 -15 -71 -31 -71
-12 0 -19 -7 -19 -20 0 -22 26 -28 33 -7 2 6 8 9 12 5 14 -13 -6 -28 -37 -28
-27 0 -30 2 -24 25 4 17 2 25 -7 25 -7 0 -24 -11 -37 -25 -13 -14 -33 -25 -44
-24 -21 0 -21 0 -1 9 28 11 49 37 36 44 -8 5 -7 26 5 64 4 14 114 17 114 3z
m-1047 -32 c-18 -32 -72 -83 -80 -76 -2 2 16 24 39 48 l43 43 -35 7 -35 6 43
2 43 1 -18 -31z m351 -34 l-6 -45 36 0 c28 0 39 5 46 23 10 22 10 22 7 -3 -2
-23 -7 -25 -55 -28 l-54 -3 7 33 c16 79 31 97 19 23z m-564 30 c0 -7 -30 -18
-100 -39 -30 -9 -50 -12 -45 -7 7 7 110 43 143 50 1 1 2 -1 2 -4z"/>
<path d="M2200 1080 l0 -110 233 2 232 3 3 108 3 107 -236 0 -235 0 0 -110z"/>
<path d="M2687 674 c6 -17 44 -15 51 4 2 8 -7 12 -27 12 -23 0 -29 -4 -24 -16z"/>
<path d="M2673 613 c15 -2 37 -2 50 0 12 2 0 4 -28 4 -27 0 -38 -2 -22 -4z"/>
<path d="M2650 580 c0 -5 18 -10 39 -10 22 0 43 5 46 10 4 6 -12 10 -39 10
-25 0 -46 -4 -46 -10z"/>
</g>
</svg>
